<svg width="66" height="29" viewBox="0 0 66 29" fill="none" xmlns="http://www.w3.org/2000/svg">
<path fill-rule="evenodd" clip-rule="evenodd" d="M58.3315 26.6858C57.6004 27.5333 56.1163 27.4062 55.8725 26.1669C55.7561 25.5523 55.9254 24.8109 56.1905 24.2917C56.7841 23.1582 57.8546 22.2261 59.0736 21.9189C59.0736 22.6181 59.0736 23.5397 59.0524 24.2494C59.031 25.0333 58.8616 26.0608 58.3315 26.6858ZM46.5349 9.93804C47.2133 9.98036 47.7539 10.7218 47.5737 11.9824C47.3511 13.4762 46.1109 15.0756 44.7014 15.4358C44.4786 14.9062 44.3728 13.8256 44.4998 12.7663C44.7331 10.8277 45.7294 9.89555 46.5349 9.93804ZM20.1117 17.1625C19.0624 15.7642 19.1047 14.0693 19.4335 12.4591C20.4614 14.7684 23.2067 15.1711 24.9025 14.832C24.68 16.6117 23.7469 18.1689 22.1362 18.1689C21.2352 18.1794 20.5779 17.7875 20.1117 17.1625ZM23.8214 10.637C24.3385 11.1647 24.6874 11.9339 24.8471 12.7877C24.8481 12.7876 24.8495 12.7981 24.8495 12.7981C24.8489 12.7946 24.8479 12.7912 24.8471 12.7877C23.6609 12.9567 22.5171 12.7342 21.6804 12.0883C21.0763 11.6116 20.9172 10.8595 21.1716 10.404C21.5424 9.74732 22.6555 9.46123 23.8214 10.637ZM7.66859 1.95062C8.39973 1.09272 9.88366 1.23022 10.1169 2.46975C10.2333 3.0735 10.0744 3.81501 9.80959 4.33405C9.21576 5.46748 8.14531 6.39963 6.92636 6.71747C6.92636 6.00789 6.91572 5.09676 6.94783 4.38709C6.96885 3.60318 7.13855 2.56502 7.66859 1.95062ZM61.7763 20.3193C61.7868 16.6329 61.7763 12.9464 61.7763 9.25995C61.7763 8.349 59.1584 8.29587 59.0736 9.21764C59.0736 9.58835 59.0736 9.96971 59.0629 10.3404C59.0207 12.3638 58.0561 16.1455 56.4557 17.5226C56.0211 17.8935 55.6288 17.9146 55.3535 17.7133C55.1095 17.5332 55.0458 17.0778 55.0458 16.6858V16.1774C55.0458 13.8999 55.0565 11.5481 55.0458 9.27051C55.0458 8.35947 52.4279 8.29587 52.3431 9.21764C52.3431 11.3362 52.3431 13.3914 52.3538 15.4888C50.6261 18.243 46.6303 19.5354 44.9769 16.2726C46.005 16.6646 47.0966 16.4739 47.8386 16.082C49.1212 15.404 50.0962 14.2812 50.2869 12.5015C50.4671 7.28955 43.5779 6.57997 42.0409 11.8871C41.7866 12.7663 41.6489 13.7091 41.6807 14.6307C41.7123 15.5099 41.8926 16.3256 42.1999 17.046C41.6381 17.5968 40.9916 17.9782 40.3452 17.957C39.4971 17.9252 39.5821 16.8766 39.5821 16.2726V12.3002C39.5821 11.8235 39.5821 11.3468 39.5395 10.8808C39.402 9.49308 38.3419 8.39132 36.8581 8.29587C34.7487 8.2642 33.265 10.2239 32.5337 12.3744C32.5232 11.1774 32.5337 10.4675 32.5337 9.25995C32.5232 8.35947 30.096 8.29587 29.8204 9.24931C29.4706 10.457 28.3258 11.3998 27.2553 11.9611C26.9269 11.1667 26.5136 10.4359 25.9412 9.81092C23.5881 7.2578 20.186 7.72405 18.1931 9.83194C16.6139 11.5058 16.1372 14.5248 16.985 16.6434C16.3597 17.385 15.5012 17.9888 14.7381 17.957C14.3564 17.9358 14.1444 17.7133 14.049 17.3638C13.9535 17.0247 13.9749 16.6223 13.9749 16.2726C13.9749 14.9485 13.9642 13.6243 13.9749 12.3002C13.9749 11.8235 13.9749 11.3468 13.9326 10.8808C13.7947 9.49308 12.9785 8.38067 11.4312 8.28549C8.77071 8.16875 7.70026 10.7431 6.91571 12.8616V8.33836C7.4776 8.243 8.01828 8.10523 8.55861 7.94644C14.42 6.26204 13.2858 0.107344 8.91921 0.00151531C5.97265 -0.0619997 4.22366 1.87646 4.24504 4.82132V6.72812C3.18506 6.56933 2.39004 5.19222 1.94508 4.30238C1.8813 4.16461 1.81769 4.02685 1.75427 3.88908C1.70131 3.75141 1.5529 3.67743 1.41486 3.71974C1.29848 3.75141 1.18192 3.7939 1.06517 3.83621C0.641413 4.02694 0.291364 4.35534 0.12202 4.78966C-0.185267 5.56293 0.12202 6.38925 0.662346 6.9718C1.5529 7.90404 2.97322 8.243 4.22366 8.30651C4.21302 11.9824 4.22366 15.6477 4.22366 19.3235C4.26606 19.8426 4.97636 19.9804 5.38965 19.9909C5.82433 20.0015 6.76748 19.8637 6.77822 19.2706L6.80998 18.815C6.99014 17.1838 8.55861 10.6583 10.5406 10.6476C11.0284 10.6476 11.2722 10.9655 11.2722 11.4422V17.2579C11.2722 19.0587 12.2896 20.2663 14.1339 20.2663C15.5648 20.2769 16.8576 19.2387 17.6314 17.9465C17.7373 18.0842 17.8222 18.2324 17.9388 18.3595C18.9456 19.5354 20.4296 20.2876 22.1255 20.2982C25.8243 20.2451 27.7215 17.0672 27.584 13.9422C28.4425 13.4655 29.2163 12.851 29.8096 12.0883V19.3235C29.8521 19.8426 30.5941 19.9804 31.0076 19.9909C31.4419 20.0015 32.3854 19.8637 32.3854 19.2706L32.4277 18.815L32.5548 17.6074C32.7458 15.9231 34.007 10.6583 36.1586 10.6476C36.6353 10.6476 36.8794 10.9655 36.8794 11.4422V17.2579C36.8794 19.0587 37.8969 20.2663 39.7515 20.2663C41.0341 20.2769 42.1999 19.4401 42.9843 18.3384C44.0229 19.6201 45.613 20.3722 47.5205 20.3722C49.7572 20.3722 51.3786 19.3871 52.4598 17.7981C52.7035 19.1647 53.4349 20.2451 55.2262 20.2663C57.0808 20.2769 58.4907 17.6922 59.0736 16.1349V20.2982C58.5222 20.3934 57.9819 20.5312 57.4415 20.69C51.5801 22.3638 52.7035 28.529 57.0703 28.6244C60.0274 28.6986 61.7656 26.76 61.7551 23.8151C61.7551 23.3173 61.7445 22.385 61.7551 21.8977C62.8044 22.0566 63.6099 23.4444 64.0445 24.3342C64.1186 24.4719 64.1823 24.6095 64.2354 24.7472C64.2989 24.885 64.4365 24.9485 64.585 24.9167C64.7016 24.885 64.8182 24.8427 64.9241 24.7896C65.3588 24.599 65.7086 24.2813 65.8782 23.8363C66.1855 23.063 65.8782 22.2473 65.3269 21.6646C64.4474 20.7219 63.0162 20.3934 61.7763 20.3193Z" fill="black"/>
</svg>
