<svg width="1409" height="611" viewBox="0 0 1409 611" fill="none" xmlns="http://www.w3.org/2000/svg">
<path opacity="0.9" fill-rule="evenodd" clip-rule="evenodd" d="M1245.02 569.578C1229.41 587.667 1197.74 584.954 1192.53 558.502C1190.05 545.384 1193.67 529.559 1199.32 518.479C1211.99 494.286 1234.84 474.39 1260.86 467.833C1260.86 482.757 1260.86 502.427 1260.41 517.576C1259.95 534.308 1256.33 556.237 1245.02 569.578ZM993.234 212.116C1007.71 213.019 1019.25 228.844 1015.41 255.751C1010.66 287.634 984.186 321.772 954.1 329.459C949.345 318.155 947.086 295.092 949.798 272.483C954.777 231.105 976.042 211.209 993.234 212.116ZM429.262 366.314C406.865 336.468 407.768 300.293 414.785 265.926C436.726 315.215 495.321 323.809 531.515 316.572C526.766 354.558 506.851 387.794 472.471 387.794C453.242 388.019 439.212 379.654 429.262 366.314ZM508.44 227.034C519.478 238.298 526.925 254.716 530.333 272.939C530.354 272.937 530.384 273.161 530.384 273.161C530.371 273.086 530.35 273.014 530.333 272.939C505.015 276.546 480.601 271.798 462.743 258.01C449.851 247.837 446.454 231.785 451.884 222.062C459.799 208.045 483.557 201.939 508.44 227.034ZM163.677 41.6338C179.283 23.3229 210.955 26.2576 215.933 52.7139C218.419 65.6003 215.026 81.4271 209.374 92.5053C196.7 116.697 173.852 136.593 147.835 143.377C147.835 128.232 147.608 108.785 148.294 93.6376C148.742 76.9057 152.364 54.7474 163.677 41.6338ZM1318.55 433.692C1318.77 355.01 1318.55 276.327 1318.55 197.643C1318.55 178.2 1262.67 177.066 1260.86 196.74C1260.86 204.652 1260.86 212.792 1260.63 220.705C1259.73 263.891 1239.14 344.608 1204.98 374.001C1195.71 381.917 1187.33 382.368 1181.46 378.07C1176.25 374.226 1174.89 364.507 1174.89 356.14V345.288C1174.89 296.677 1175.12 246.481 1174.89 197.868C1174.89 178.423 1119.01 177.066 1117.2 196.74C1117.2 241.958 1117.2 285.824 1117.43 330.591C1080.56 389.377 995.271 416.962 959.98 347.321C981.925 355.688 1005.22 351.617 1021.06 343.252C1048.44 328.781 1069.25 304.816 1073.32 266.831C1077.16 155.587 930.122 140.442 897.315 253.718C891.888 272.483 888.948 292.606 889.628 312.276C890.302 331.042 894.149 348.451 900.71 363.828C888.717 375.584 874.92 383.723 861.123 383.273C843.02 382.593 844.836 360.211 844.836 347.321V262.533C844.836 252.36 844.836 242.185 843.927 232.239C840.99 202.619 818.364 179.103 786.695 177.066C741.672 176.39 710.003 218.219 694.394 264.118C694.171 238.569 694.394 223.418 694.394 197.643C694.171 178.423 642.365 177.066 636.483 197.416C629.017 223.193 604.583 243.315 581.733 255.297C574.724 238.341 565.903 222.742 553.686 209.403C503.46 154.909 430.847 164.861 388.312 209.852C354.605 245.578 344.43 310.016 362.525 355.233C349.179 371.064 330.857 383.95 314.568 383.273C306.42 382.82 301.897 378.07 299.86 370.61C297.822 363.373 298.279 354.785 298.279 347.321C298.279 319.058 298.05 290.796 298.279 262.533C298.279 252.36 298.279 242.185 297.376 232.239C294.431 202.619 277.012 178.876 243.986 176.844C187.201 174.353 164.353 229.299 147.608 274.517V177.973C159.601 175.937 171.141 172.997 182.674 169.608C307.778 133.656 283.571 2.29113 190.37 0.0323427C127.479 -1.32331 90.1492 40.0509 90.6056 102.906V143.604C67.9814 140.215 51.0128 110.822 41.5155 91.8294C40.1542 88.8889 38.7966 85.9485 37.4429 83.0081C36.3125 80.0695 33.1448 78.4905 30.1987 79.3936C27.7146 80.0695 25.2267 80.9765 22.7349 81.8796C13.6902 85.9504 6.21884 92.9597 2.60439 102.23C-3.95432 118.734 2.60439 136.371 14.137 148.805C33.1448 168.703 63.46 175.937 90.1492 177.293C89.922 255.751 90.1492 333.982 90.1492 412.438C91.0543 423.518 106.215 426.459 115.036 426.682C124.314 426.91 144.444 423.969 144.673 411.31L145.351 401.585C149.197 366.768 182.674 227.489 224.978 227.261C235.388 227.261 240.593 234.045 240.593 244.22V368.351C240.593 406.787 262.308 432.561 301.672 432.561C332.212 432.788 359.807 410.628 376.323 383.047C378.583 385.986 380.395 389.15 382.883 391.863C404.373 416.962 436.046 433.016 472.244 433.241C551.191 432.109 591.685 364.28 588.75 297.58C607.073 287.407 623.589 274.289 636.252 258.01V412.438C637.159 423.518 652.997 426.459 661.822 426.682C671.092 426.91 691.23 423.969 691.23 411.31L692.133 401.585L694.845 375.811C698.921 339.861 725.841 227.489 771.764 227.261C781.939 227.261 787.15 234.045 787.15 244.22V368.351C787.15 406.787 808.867 432.561 848.45 432.561C875.827 432.788 900.71 414.926 917.451 391.412C939.619 418.77 973.558 434.822 1014.27 434.822C1062.01 434.822 1096.62 413.796 1119.69 379.88C1124.9 409.049 1140.51 432.109 1178.74 432.561C1218.32 432.788 1248.42 377.621 1260.86 344.381V433.241C1249.09 435.274 1237.56 438.215 1226.02 441.604C1100.92 477.33 1124.9 608.919 1218.1 610.956C1281.22 612.539 1318.32 571.161 1318.09 508.306C1318.09 497.68 1317.87 477.783 1318.09 467.381C1340.49 470.774 1357.68 500.394 1366.96 519.386C1368.54 522.325 1369.9 525.261 1371.03 528.202C1372.39 531.142 1375.32 532.498 1378.49 531.818C1380.98 531.142 1383.47 530.239 1385.73 529.105C1395.01 525.038 1402.48 518.256 1406.09 508.759C1412.66 492.254 1406.09 474.844 1394.33 462.407C1375.56 442.286 1345.01 435.274 1318.55 433.692Z" fill="#FFA638"/>
</svg>
