<svg width="1147" height="38" viewBox="0 0 1147 38" fill="none" xmlns="http://www.w3.org/2000/svg">
<path fill-rule="evenodd" clip-rule="evenodd" d="M61.7805 2.77209C52.862 2.77209 45.6319 10.0022 45.6319 18.9208C45.6319 27.8393 52.862 35.0694 61.7805 35.0694C70.6991 35.0694 77.9292 27.8393 77.9292 18.9208C77.9725 10.0022 70.7424 2.77209 61.7805 2.77209ZM61.7805 29.1814C56.109 29.1814 51.5199 24.5923 51.5199 18.9208C51.5199 13.2492 56.109 8.66008 61.7805 8.66008C67.452 8.66008 72.0412 13.2492 72.0412 18.9208C72.0412 24.5923 67.452 29.1814 61.7805 29.1814ZM103.04 8.66008H97.5847V32.0388C97.5847 33.684 96.2858 34.9828 94.6407 34.9828C92.9955 34.9828 91.6967 33.684 91.6967 32.0388V8.66008H87.4539V32.0388C87.4539 33.684 86.155 34.9828 84.5099 34.9828C82.8647 34.9828 81.5659 33.684 81.5659 32.0388V8.66008H76.6737C75.0285 8.66008 73.7297 7.36126 73.7297 5.71609C73.7297 4.07092 75.0285 2.77209 76.6737 2.77209H102.996C104.642 2.77209 105.94 4.07092 105.94 5.71609C105.984 7.31797 104.642 8.66008 103.04 8.66008ZM144.299 5.71609V32.0388C144.299 33.684 143 34.9828 141.355 34.9828C139.71 34.9828 138.411 33.684 138.411 32.0388V14.9377V15.1542L125.769 33.2944C124.86 34.6365 123.128 35.0694 122.176 35.1127C114.036 35.1127 107.326 29.0948 106.2 21.3019V32.0388C106.2 33.684 104.901 34.9828 103.256 34.9828C101.611 34.9828 100.312 33.684 100.312 32.0388V13.9852C100.312 12.3401 101.611 11.0413 103.256 11.0413C104.901 11.0413 106.2 12.3401 106.2 13.9852V16.5829C107.326 8.74666 114.036 2.77209 122.176 2.77209C125.033 2.77209 127.761 3.55139 130.098 4.85021C130.878 5.36974 131.441 6.27891 131.441 7.31796C131.441 8.96314 130.142 10.262 128.497 10.262C127.934 10.262 127.458 10.1321 127.025 9.87231C125.596 9.09301 123.994 8.70337 122.219 8.70337C116.547 8.70337 111.958 13.2925 111.958 18.964C111.958 24.3325 116.114 28.7485 121.396 29.1814L138.671 4.59044C139.147 3.55139 140.143 2.81539 141.355 2.81539C143 2.77209 144.299 4.07092 144.299 5.71609ZM48.6624 30.1772C49.7015 31.4327 49.485 33.2944 48.2295 34.3334C46.974 35.3725 45.1123 35.156 44.0733 33.9005L35.5877 23.38L27.102 33.9005C26.063 35.156 24.2446 35.3725 22.9458 34.3334C21.6903 33.2944 21.4738 31.476 22.5129 30.1772L31.8211 18.7043L28.0545 14.0718V16.7561C28.0545 22.341 23.5519 26.8436 17.967 26.8436C12.3821 26.8436 7.87951 22.341 7.87951 16.7561V5.71609C7.87951 4.07092 9.17833 2.77209 10.8235 2.77209C12.4687 2.77209 13.7675 4.07092 13.7675 5.71609V16.7561C13.7675 19.0939 15.6291 20.9556 17.967 20.9556C20.3049 20.9556 22.1665 19.0506 22.1665 16.7561V5.71609C22.1665 4.07092 23.4653 2.77209 25.1105 2.77209C26.1496 2.77209 27.0587 3.33492 27.5783 4.1575L35.5877 14.0285L43.7702 3.94103C44.8093 2.68551 46.6276 2.46904 47.9264 3.50809C49.182 4.54715 49.3984 6.3655 48.3594 7.66432L39.3975 18.7476L48.6624 30.1772ZM20.911 31.9522C20.911 33.5974 19.6122 34.8962 17.967 34.8962H3.5934C3.37693 34.9395 3.16046 34.9828 2.94399 34.9828C1.29882 34.9828 0 33.684 0 32.0388V5.71609C0 4.07092 1.29882 2.77209 2.94399 2.77209C4.58916 2.77209 5.88798 4.07092 5.88798 5.71609V29.0083H17.967C19.6122 29.0083 20.911 30.3071 20.911 31.9522Z" fill="#A7A7A7"/>
<path d="M296.591 14.7452V34.1935C296.591 35.6553 295.256 36.7358 293.985 36.7358H287.248C285.914 36.7358 284.833 35.6553 284.833 34.1935V14.9358C284.261 11.5038 282.227 10.7411 279.812 10.9318C279.05 8.77082 278.287 6.92769 277.016 5.1481C274.41 2.60583 274.791 3.49563 274.029 2.60583C274.219 2.60583 275.554 1.52536 277.397 0.953351C278.859 0.572011 281.655 0.381337 283.562 0.572007C288.583 1.27113 290.299 2.54226 291.761 3.68628L293.286 5.1481C296.782 8.89795 296.591 13.2834 296.591 14.7452ZM311.146 1.4618H304.599C303.074 1.4618 301.994 2.54226 301.994 4.00407V34.13C301.994 35.5918 303.138 36.6722 304.599 36.6722H311.146C312.671 36.6722 313.752 35.5918 313.752 34.13V4.00407C313.752 2.54226 312.607 1.4618 311.146 1.4618ZM348.39 1.4618H341.653C340.128 1.4618 339.047 2.54226 339.047 4.00407V24.7236C339.047 27.0752 336.441 27.4565 336.441 27.4565V37.6256H340C341.462 37.4349 343.75 37.0536 345.593 35.7824C347.055 34.702 348.581 33.0495 349.725 31.2064C350.487 29.9352 350.678 28.8548 350.869 27.393V3.94051C350.805 2.54226 349.725 1.4618 348.39 1.4618ZM331.103 25.1049V22.1813L330.912 4.38541C330.912 2.92361 329.768 1.84314 328.497 1.84314H321.76C320.298 1.84314 319.154 2.92361 319.154 4.38541V27.8379C319.345 29.2997 319.535 30.3801 320.425 31.6513C321.569 33.3037 322.84 35.0833 324.556 36.0367C326.399 37.3078 328.497 37.8798 329.958 37.8798H333.518V27.7108C333.518 27.6472 331.103 27.2659 331.103 25.1049ZM262.08 0.572007H261.317C252.928 0.572007 246.191 7.30902 246.191 15.1265L246 34.1935C246 35.6553 247.144 36.7358 248.606 36.7358H254.771C256.233 36.7358 257.377 35.6553 257.377 34.1935V14.9358C257.758 13.474 259.982 11.6309 261.826 11.6309C263.478 11.6309 265.575 13.474 266.147 14.9358V34.0029C266.147 35.4647 267.292 36.5451 268.563 36.5451H274.918C276.253 36.5451 277.333 35.4647 277.333 34.0029L277.524 15.4443C277.588 7.43613 270.66 0.572007 262.08 0.572007ZM416.459 4.76676L415.125 3.30494C413.663 2.22447 411.947 0.953355 406.735 0.0635606C405.083 -0.12711 402.286 0.254227 400.761 0.635568C398.918 1.20758 397.392 2.28805 397.202 2.28805C398.155 3.17784 397.583 2.28805 400.189 4.83032C401.651 6.67346 402.413 8.45304 402.985 10.614C405.591 10.4233 407.434 11.186 408.006 14.6181V33.8757C408.006 35.3376 409.277 36.418 410.612 36.418H417.349C418.684 36.418 419.764 35.3376 419.764 33.8757L419.955 14.4274C420.018 12.902 420.146 8.58016 416.459 4.76676ZM434.509 1.14401H427.772C426.438 1.14401 425.357 2.22448 425.357 3.68628V33.8122C425.357 35.274 426.501 36.3545 427.772 36.3545H434.509C435.844 36.3545 436.924 35.274 436.924 33.8122V3.68628C436.924 2.22448 435.844 1.14401 434.509 1.14401ZM471.626 1.14401H464.889C463.618 1.14401 462.474 2.22448 462.474 3.68628V21.6729C462.474 21.8635 462.474 22.7533 462.284 24.4058C462.284 26.7574 459.868 27.1387 459.868 27.1387V37.3078H463.428C464.889 37.1171 466.987 36.6087 468.83 35.4647C470.482 34.3842 472.008 32.7317 473.088 30.9521C473.851 29.681 474.042 28.6005 474.232 27.1387V3.68628C474.232 2.22448 473.088 1.14401 471.626 1.14401ZM454.276 24.7236V3.81341C454.276 2.54227 453.131 1.4618 451.67 1.4618H445.123C443.598 1.4618 442.518 2.54227 442.518 3.81341V27.4565C442.708 28.9183 442.899 29.9988 443.662 31.0793C444.806 32.9224 446.267 34.702 447.92 35.5918C449.763 36.8629 451.86 37.4349 453.322 37.4349H456.881V27.2658C456.881 27.2658 454.466 26.8845 454.276 24.7236ZM385.507 0L384.744 0.190663C376.164 0.190663 369.491 6.92768 369.491 14.7452V33.8122C369.491 35.274 370.635 36.3545 372.097 36.3545H378.262C379.723 36.3545 380.867 35.274 380.867 33.8122L380.677 14.9358L380.867 14.5545C381.249 13.0927 383.473 11.3131 385.126 11.3131C386.778 11.3131 389.066 12.9656 389.384 14.5545L389.575 14.7452L389.384 33.6215C389.384 35.0833 390.528 36.1638 391.99 36.1638H398.155C399.68 36.1638 400.761 35.0833 400.761 33.6215V14.9358C400.761 7.11836 394.087 0 385.507 0Z" fill="#A7A7A7"/>
<path d="M679.971 5.15973C680.089 5.80661 680.089 6.45349 680.089 7.10036C680.089 15.0393 680.089 23.0371 680.089 30.9761C680.089 33.446 679.207 35.3866 676.913 36.3863C674.443 37.4448 672.091 37.0332 670.091 35.2102C668.856 34.0928 667.916 32.6815 666.857 31.3289C664.093 27.8005 661.094 24.3897 658.742 20.5084C658.8 20.4496 658.742 20.4496 658.683 20.3908C658.565 20.5672 658.624 20.8024 658.624 20.9788C658.624 24.0956 658.624 27.1536 658.624 30.2116C658.624 31.0937 658.506 31.917 658.271 32.7403C657.507 35.3866 655.272 36.9744 652.508 36.798C649.097 36.5627 647.157 34.5045 646.921 30.9173C646.863 30.5644 646.863 30.2116 646.863 29.8587C646.863 21.9198 646.863 13.9808 646.863 6.04183C646.863 3.57193 647.804 1.6313 650.156 0.631579C652.567 -0.368143 654.86 -0.0152998 656.86 1.80772C657.918 2.74864 658.683 4.04239 659.565 5.21854C662.211 8.80577 665.034 12.3342 667.504 16.0979C667.739 16.5095 667.974 16.8623 668.386 17.2152C668.386 17.0388 668.386 16.8035 668.386 16.6271C668.386 13.3339 668.386 10.0407 668.386 6.74753C668.386 5.39496 668.621 4.04239 669.327 2.86625C670.621 0.690387 672.62 -0.0152981 674.972 0.21993C677.736 0.455159 679.618 2.33699 679.971 5.15973ZM765.829 4.1012C765.241 2.10176 763.948 0.690387 761.831 0.278737C759.596 -0.132913 757.538 0.161122 755.95 2.04295C754.891 3.33671 754.538 4.8657 754.538 6.45349C754.538 9.8055 754.538 13.2163 754.538 16.5683C754.538 16.8035 754.538 16.98 754.538 17.3916C754.127 16.6859 753.833 16.2155 753.48 15.6862C750.422 11.2169 747.129 6.98275 743.894 2.63102C743.483 2.10176 742.953 1.6313 742.365 1.21965C740.307 -0.132914 738.19 -0.250526 736.014 0.749196C734.074 1.69011 733.074 3.33671 733.074 5.45377C733.015 13.8044 733.074 22.2138 733.074 30.5644C733.074 30.7408 733.133 30.9761 733.133 31.1525C733.368 34.5045 735.367 36.6215 738.661 36.8568C740.954 37.0332 743.071 35.8571 744.071 33.8576C744.482 32.9755 744.776 32.0934 744.776 31.1525C744.776 27.7417 744.835 24.4485 744.835 21.0965C744.835 20.92 744.835 20.6848 744.835 20.4496C744.894 20.4496 744.894 20.4496 744.835 20.4496C745.188 21.0377 745.482 21.5669 745.894 22.0962C748.893 26.3891 752.304 30.3292 755.479 34.4457C755.715 34.7397 756.067 35.0926 756.362 35.3278C758.361 36.9744 760.654 37.2684 763.007 36.2687C765.3 35.269 766.182 33.3283 766.182 30.9173C766.182 22.9783 766.182 14.9805 766.182 6.98275C766.182 6.04184 766.123 5.04211 765.829 4.1012ZM607.815 11.9225C610.167 18.4501 609.402 24.6837 604.757 30.1528C601.934 33.5048 598.111 35.269 593.819 35.8571C589.878 36.4451 585.88 36.0335 581.881 36.0923C581.704 36.0923 581.469 36.0335 581.293 35.9747C578.176 35.4454 576 32.8579 576 29.7411C576 22.2138 576 14.6865 576 7.21798C576 3.68955 578.705 0.866809 582.292 0.808002C583.88 0.808002 585.468 0.808002 587.291 0.808002C589.349 0.866809 591.702 0.63158 594.054 1.10204C600.523 2.33699 605.521 5.57138 607.815 11.9225ZM597.288 18.509C597.347 15.2158 595.171 12.6282 591.878 12.2166C590.643 12.0402 589.467 12.1578 588.232 12.099C587.761 12.0402 587.644 12.2166 587.644 12.687C587.703 14.6277 587.703 16.5683 587.703 18.509C587.703 20.4496 587.703 22.3902 587.703 24.3309C587.703 24.6249 587.644 24.8601 588.114 24.8601C589.349 24.8013 590.584 24.9189 591.819 24.7425C595.054 24.3309 597.229 21.9198 597.288 18.509ZM705.435 18.7442C705.14 18.3913 705.14 18.2149 705.435 17.8621C707.493 15.5098 709.551 13.1575 711.55 10.7464C712.55 9.51145 713.197 8.1589 713.315 6.5711C713.55 3.10148 710.257 -0.0741062 706.787 0.278737C704.788 0.455158 703.376 1.5725 702.2 3.10148C700.142 5.80661 697.966 8.39412 695.849 11.0992C695.849 9.33504 695.908 7.57083 695.908 5.86542C695.79 2.45461 693.379 0.161125 690.086 0.102318C686.734 0.102318 684.264 2.45461 684.205 5.86542C684.146 14.2748 684.146 22.6843 684.205 31.0937C684.205 34.4457 686.675 36.8568 690.027 36.8568C693.32 36.9156 695.731 34.5045 695.849 31.0937C695.967 29.3883 695.908 27.7417 695.908 26.0363C695.908 25.8598 695.79 25.6834 696.025 25.5658C696.143 25.7422 696.202 25.8598 696.319 25.9775C698.554 28.859 700.906 31.6229 703.2 34.4457C704.023 35.4454 704.964 36.1511 706.199 36.5039C709.727 37.5625 713.609 34.5633 713.726 30.7408C713.785 28.9178 713.138 27.4476 711.962 26.0951C709.786 23.684 707.61 21.1553 705.435 18.7442ZM642.923 15.0981C642.923 11.7461 642.923 8.9822 642.864 6.15945C642.864 5.63019 642.864 5.15973 642.746 4.68927C642.099 1.69011 639.453 -0.191718 636.395 0.102318C633.278 0.455161 631.161 2.80745 631.161 5.98303C631.161 10.8052 631.161 15.6862 631.161 20.5084C631.161 20.8612 631.161 21.2141 631.102 21.5669C630.808 24.3309 628.162 26.0363 625.751 24.8013C624.222 24.0368 623.634 22.6843 623.634 21.0377C623.634 16.0979 623.634 11.0993 623.634 6.15945C623.634 2.57222 621.223 0.102314 617.812 0.0435072C614.401 0.0435072 611.99 2.51341 611.931 6.04183C611.872 11.2757 611.931 16.5095 611.931 21.8021C611.99 22.5666 611.99 23.2723 612.108 23.978C612.931 29.5059 615.812 33.5048 621.046 35.6218C623.987 36.8568 627.045 37.0332 630.161 36.6215C637.218 35.7394 642.452 30.1528 642.864 23.0959C643.04 20.2732 642.864 17.3916 642.923 15.0981ZM727.193 1.5725C725.253 -0.132911 723.018 -0.426949 720.666 0.572772C718.431 1.57249 717.431 3.45433 717.372 5.86542C717.314 10.0407 717.372 14.216 717.372 18.3913C717.372 22.6843 717.372 26.8596 717.314 31.0937C717.314 34.3869 719.725 36.6804 723.077 36.798C726.252 36.9156 728.899 34.5045 728.957 31.2701C729.016 22.6843 729.016 14.0984 728.957 5.51257C728.957 3.98359 728.369 2.57222 727.193 1.5725Z" fill="#A7A7A7"/>
<path d="M769.828 8.57051C769.77 7.15914 769.828 5.74777 770.122 4.3364C770.769 1.39604 773.239 -0.25056 776.238 0.219897C779.12 0.690354 781.002 3.04264 780.708 5.983C780.473 8.39409 779.767 10.7464 778.826 12.981C778.238 14.2748 777.415 15.3333 776.003 15.8038C773.71 16.5683 771.299 15.4509 770.475 13.1575C769.887 11.6873 769.828 10.0995 769.828 8.57051Z" fill="#A7A7A7"/>
<path d="M978.619 12.322C978.619 6.55061 973.917 1.84802 968.145 1.84802H950.689V36.0487H958.455V22.7959H964.654L972.207 36.0487H980.828L972.634 21.7271C976.339 20.0171 978.619 16.312 978.619 12.322ZM966.578 16.1695H958.384V8.47439H966.72C969.285 8.6169 970.924 10.1132 970.924 12.322C970.853 14.5308 969.143 16.0983 966.578 16.1695ZM937.009 1.91927H944.989V22.5109C944.989 31.4886 939.431 36.9037 930.097 36.9037C920.763 36.9037 915.206 31.5598 915.206 22.5109V1.91927H923.186V22.0122C923.186 26.8572 925.751 29.636 930.097 29.636C934.515 29.636 937.08 26.8572 937.08 22.0122V1.91927H937.009ZM1025.29 29.2085H1043.74V36.0487H1017.38V1.84802H1042.89V8.40315H1025.36V15.2433H1040.75V21.9409H1025.36V29.2085H1025.29ZM904.66 17.0958C907.083 15.5995 908.579 12.9632 908.579 10.1132C908.579 5.62434 904.945 1.91927 900.385 1.84802H883V36.0487H901.882C907.225 36.0487 911.501 31.7023 911.501 26.3585C911.501 22.5822 909.292 18.6633 904.66 17.0958ZM890.838 8.26064H897.25C899.174 8.26064 900.813 9.89942 900.813 11.8232C900.813 13.8182 899.245 15.3858 897.25 15.3858H890.838V8.26064ZM899.602 29.636H890.838V21.6559H899.53C902.38 21.6559 903.734 23.9359 903.734 25.5747C903.734 27.641 902.309 29.636 899.602 29.636ZM1076.95 12.322C1076.95 6.55061 1072.24 1.84802 1066.47 1.84802H1049.02V36.0487H1056.78V22.7959H1062.98L1070.53 36.0487H1079.15L1070.96 21.7271C1074.59 20.0171 1076.95 16.312 1076.95 12.322ZM1064.83 16.1695H1056.64V8.47439H1064.98C1067.54 8.6169 1069.18 10.1132 1069.18 12.322C1069.18 14.5308 1067.4 16.0983 1064.83 16.1695ZM1006.19 17.0958C1008.62 15.5995 1010.11 12.9632 1010.11 10.1132C1010.11 5.62434 1006.48 1.91927 1001.92 1.84802H984.533V36.0487H1003.41C1008.76 36.0487 1013.03 31.7023 1013.03 26.3585C1013.03 22.5822 1010.75 18.6633 1006.19 17.0958ZM992.371 8.26064H998.783C1000.71 8.26064 1002.35 9.89942 1002.35 11.8232C1002.35 13.8182 1000.78 15.3858 998.783 15.3858H992.371V8.26064ZM1001.06 29.636H992.371V21.6559H1001.06C1003.91 21.6559 1005.27 23.9359 1005.27 25.5747C1005.27 27.641 1003.84 29.636 1001.06 29.636ZM1146.34 1.84802L1132.74 22.0834V35.9774H1124.33V22.0834L1110.79 1.84802H1120.77L1128.6 13.6045L1136.44 1.84802H1146.34ZM1110.72 12.322C1110.72 6.55061 1106.02 1.84802 1100.25 1.84802H1082.79V36.0487H1090.56V22.7959H1096.75L1104.31 36.0487H1113L1104.81 21.7271C1108.44 20.0171 1110.72 16.312 1110.72 12.322ZM1098.61 16.1695H1090.41V8.47439H1098.75C1101.31 8.6169 1102.95 10.1132 1102.95 12.322C1102.95 14.5308 1101.24 16.0983 1098.61 16.1695Z" fill="#A7A7A7"/>
</svg>
